<svg width="24" height="25" viewBox="0 0 24 25" fill="none" xmlns="http://www.w3.org/2000/svg">
<mask id="mask0_32_2012" style="mask-type:alpha" maskUnits="userSpaceOnUse" x="0" y="0" width="24" height="25">
<g clip-path="url(#clip0_32_2012)">
<path d="M2.99998 13.4997V5.50029C2.99998 4.95013 3.19567 4.47936 3.58798 4.08706C3.77067 3.89774 3.99028 3.74796 4.23322 3.64697C4.47615 3.54599 4.73723 3.49596 5.00029 3.49998H11.0003V13.4997H2.99998ZM12.9997 3.49998H18.9997C19.5498 3.49998 20.0206 3.69567 20.4129 4.08798C20.8052 4.48029 21.0009 4.95106 21 5.50029V9.49998H12.9997V3.49998ZM12.9997 21.5V11.5003H21V19.4997C21 20.0498 20.8043 20.5206 20.412 20.9129C20.2293 21.1022 20.0097 21.252 19.7667 21.353C19.5238 21.454 19.2627 21.504 18.9997 21.5H12.9997ZM2.99998 15.5H11.0003V21.5H5.00029C4.73705 21.5037 4.47583 21.4535 4.23277 21.3524C3.9897 21.2512 3.76994 21.1014 3.58706 20.912C3.39774 20.7293 3.24796 20.5097 3.14697 20.2667C3.04599 20.0238 2.99596 19.7627 2.99998 19.4997V15.5Z" fill="black"/>
</g>
</mask>
<g mask="url(#mask0_32_2012)">
<rect y="0.5" width="24" height="24" fill="#C61012"/>
</g>
<defs>
<clipPath id="clip0_32_2012">
<rect width="24" height="24" fill="white" transform="translate(0 0.5)"/>
</clipPath>
</defs>
</svg>
