<svg width="24" height="25" viewBox="0 0 24 25" fill="none" xmlns="http://www.w3.org/2000/svg">
<mask id="mask0_32_2021" style="mask-type:alpha" maskUnits="userSpaceOnUse" x="0" y="0" width="24" height="25">
<g clip-path="url(#clip0_32_2021)">
<path d="M18.9997 18.2V20C18.9997 20.1329 19.0504 20.2492 19.1501 20.3507C19.195 20.3985 19.2492 20.4366 19.3094 20.4626C19.3696 20.4887 19.4344 20.5021 19.5 20.5021C19.5655 20.5021 19.6304 20.4887 19.6906 20.4626C19.7507 20.4366 19.8049 20.3985 19.8498 20.3507C19.8976 20.3057 19.9355 20.2513 19.9614 20.191C19.9873 20.1306 20.0005 20.0656 20.0003 20V17C20.0005 16.9343 19.9873 16.8693 19.9614 16.809C19.9355 16.7487 19.8976 16.6943 19.8498 16.6492C19.8048 16.6018 19.7505 16.564 19.6904 16.5383C19.6302 16.5126 19.5654 16.4994 19.5 16.4997H16.5C16.4343 16.4994 16.3693 16.5127 16.309 16.5385C16.2487 16.5644 16.1943 16.6024 16.1492 16.6501C16.1014 16.695 16.0633 16.7492 16.0373 16.8094C16.0113 16.8696 15.9979 16.9344 15.9979 17C15.9979 17.0655 16.0113 17.1304 16.0373 17.1906C16.0633 17.2507 16.1014 17.3049 16.1492 17.3498C16.1943 17.3976 16.2487 17.4355 16.309 17.4614C16.3693 17.4873 16.4343 17.5005 16.5 17.5003H18.3L15.8501 19.9501C15.8024 19.995 15.7643 20.0492 15.7382 20.1094C15.7122 20.1696 15.6988 20.2344 15.6988 20.3C15.6988 20.3655 15.7122 20.4304 15.7382 20.4906C15.7643 20.5507 15.8024 20.6049 15.8501 20.6498C15.895 20.6976 15.9492 20.7357 16.0094 20.7617C16.0696 20.7878 16.1344 20.8012 16.2 20.8012C16.2655 20.8012 16.3304 20.7878 16.3906 20.7617C16.4507 20.7357 16.5049 20.6976 16.5498 20.6498L18.9997 18.2ZM18 23.5003C16.6163 23.5003 15.4375 23.012 14.4618 22.0372C13.4871 21.0615 12.9997 19.8827 12.9997 18.5C12.9997 17.1163 13.488 15.9375 14.4627 14.9618C15.4384 13.9871 16.6172 13.4997 18 13.4997C19.3837 13.4997 20.5624 13.988 21.5381 14.9627C22.5129 15.9384 23.0003 17.1172 23.0003 18.5C23.0003 19.8837 22.512 21.0624 21.5372 22.0381C20.5615 23.0129 19.3827 23.5003 18 23.5003ZM8.00029 9.49998H15.9997C16.2831 9.49998 16.5212 9.40398 16.7132 9.21198C16.9052 9.01998 17.0003 8.78275 16.9994 8.50029C17.0027 8.36806 16.979 8.23654 16.9296 8.11382C16.8803 7.99111 16.8063 7.8798 16.7123 7.78675C16.6195 7.69276 16.5083 7.61885 16.3857 7.56963C16.2631 7.5204 16.1317 7.4969 15.9997 7.5006H8.00029C7.86806 7.49723 7.73654 7.52096 7.61382 7.57033C7.49111 7.6197 7.3798 7.69366 7.28675 7.78767C7.19276 7.8805 7.11885 7.99166 7.06963 8.11425C7.0204 8.23684 6.9969 8.36824 7.0006 8.50029C7.0006 8.78367 7.09567 9.0209 7.28767 9.2129C7.47967 9.4049 7.7169 9.5009 8.00029 9.49998ZM11.6741 21.5H5.00029C4.73705 21.5037 4.47583 21.4535 4.23277 21.3524C3.9897 21.2512 3.76994 21.1014 3.58706 20.912C3.39774 20.7293 3.24796 20.5097 3.14697 20.2667C3.04599 20.0238 2.99596 19.7627 2.99998 19.4997V5.50029C2.99998 4.95013 3.19567 4.47936 3.58798 4.08706C3.77067 3.89774 3.99028 3.74796 4.23322 3.64697C4.47615 3.54599 4.73723 3.49596 5.00029 3.49998H18.9997C19.5498 3.49998 20.0206 3.69567 20.4129 4.08798C20.8052 4.48029 21.0009 4.95106 21 5.50029V12.2C20.5328 11.9723 20.0422 11.7962 19.5369 11.6747C19.0332 11.5566 18.5174 11.4977 18 11.4994C17.8163 11.4994 17.6455 11.504 17.4867 11.5123C17.3232 11.5209 17.1606 11.5419 17.0003 11.5751C16.8356 11.5399 16.6682 11.5192 16.5 11.5132C16.3163 11.5049 16.1492 11.5003 15.9997 11.5003H8.00029C7.86799 11.497 7.73643 11.5209 7.61371 11.5704C7.491 11.62 7.37972 11.6941 7.28675 11.7883C7.19287 11.881 7.11903 11.992 7.06981 12.1144C7.02059 12.2369 6.99703 12.3681 7.0006 12.5C7.0006 12.7834 7.09567 13.0206 7.28767 13.2126C7.47967 13.4046 7.7169 13.5006 8.00029 13.4997H13.1252C12.5206 14.0696 12.0287 14.7481 11.6751 15.5H8.00029C7.86799 15.4967 7.73643 15.5206 7.61371 15.5701C7.491 15.6197 7.37972 15.6938 7.28675 15.788C7.19287 15.8807 7.11903 15.9917 7.06981 16.1141C7.02059 16.2365 6.99703 16.3678 7.0006 16.4997C7.0006 16.7831 7.09567 17.0212 7.28767 17.2132C7.47967 17.4052 7.7169 17.5003 8.00029 17.4994H11.0741C11.0422 17.6608 11.0215 17.8243 11.0123 17.9886C11.0031 18.1464 10.9994 18.3172 11.0003 18.5C11.0003 19.0501 11.0501 19.5624 11.1498 20.0378C11.2495 20.5132 11.424 21.0006 11.6741 21.5Z" fill="black"/>
</g>
</mask>
<g mask="url(#mask0_32_2021)">
<rect y="0.5" width="24" height="24" fill="#1C1C1C"/>
</g>
<defs>
<clipPath id="clip0_32_2021">
<rect width="24" height="24" fill="white" transform="translate(0 0.5)"/>
</clipPath>
</defs>
</svg>
