<svg width="19" height="18" viewBox="0 0 19 18" fill="none" xmlns="http://www.w3.org/2000/svg">
<mask id="mask0_31_858" style="mask-type:alpha" maskUnits="userSpaceOnUse" x="0" y="0" width="19" height="18">
<g clip-path="url(#clip0_31_858)">
<path d="M9.89014 9.56299C8.89558 9.56299 7.94175 9.1679 7.23849 8.46464C6.53522 7.76138 6.14014 6.80755 6.14014 5.81299H7.64014C7.64014 6.40973 7.87719 6.98202 8.29915 7.40398C8.7211 7.82594 9.2934 8.06299 9.89014 8.06299C10.4869 8.06299 11.0592 7.82594 11.4811 7.40398C11.9031 6.98202 12.1401 6.40973 12.1401 5.81299H13.6401C13.6401 6.80755 13.245 7.76138 12.5418 8.46464C11.8385 9.1679 10.8847 9.56299 9.89014 9.56299ZM9.89014 2.06299C10.4869 2.06299 11.0592 2.30004 11.4811 2.722C11.9031 3.14395 12.1401 3.71625 12.1401 4.31299H7.64014C7.64014 3.71625 7.87719 3.14395 8.29915 2.722C8.7211 2.30004 9.2934 2.06299 9.89014 2.06299ZM15.1401 4.31299H13.6401C13.6401 3.31843 13.245 2.3646 12.5418 1.66134C11.8385 0.958076 10.8847 0.562988 9.89014 0.562988C8.89558 0.562988 7.94175 0.958076 7.23849 1.66134C6.53522 2.3646 6.14014 3.31843 6.14014 4.31299H4.64014C3.80814 4.31299 3.14014 4.97999 3.14014 5.81299V14.813C3.14014 15.2108 3.29817 15.5923 3.57948 15.8736C3.86078 16.155 4.24231 16.313 4.64014 16.313H15.1401C15.538 16.313 15.9195 16.155 16.2008 15.8736C16.4821 15.5923 16.6401 15.2108 16.6401 14.813V5.81299C16.6401 5.41516 16.4821 5.03363 16.2008 4.75233C15.9195 4.47102 15.538 4.31299 15.1401 4.31299Z" fill="black"/>
</g>
</mask>
<g mask="url(#mask0_31_858)">
<rect x="0.890137" width="18" height="18" fill="white"/>
</g>
<defs>
<clipPath id="clip0_31_858">
<rect width="18" height="18" fill="white" transform="translate(0.890137)"/>
</clipPath>
</defs>
</svg>
