<svg width="20" height="20" viewBox="0 0 20 20" fill="none" xmlns="http://www.w3.org/2000/svg">
<mask id="mask0_31_836" style="mask-type:alpha" maskUnits="userSpaceOnUse" x="0" y="0" width="20" height="20">
<g clip-path="url(#clip0_31_836)">
<path fill-rule="evenodd" clip-rule="evenodd" d="M6.66699 17.5C6.55684 17.5027 6.44731 17.4828 6.34515 17.4415C6.24299 17.4002 6.15037 17.3384 6.07299 17.26C5.99449 17.1829 5.93267 17.0905 5.89139 16.9884C5.8501 16.8864 5.83022 16.777 5.83299 16.667V15H4.99999C4.88984 15.0027 4.78031 14.9828 4.67815 14.9415C4.57599 14.9002 4.48337 14.8384 4.40599 14.76C4.32749 14.6829 4.26567 14.5905 4.22439 14.4884C4.1831 14.3864 4.16322 14.277 4.16599 14.167C4.16599 13.931 4.24599 13.733 4.40599 13.573C4.56599 13.413 4.76399 13.333 4.99999 13.333H5.83299V11.667H4.99999C4.88984 11.6697 4.78031 11.6498 4.67815 11.6085C4.57599 11.5672 4.48337 11.5054 4.40599 11.427C4.32736 11.3498 4.26548 11.2572 4.22419 11.155C4.1829 11.0528 4.16309 10.9432 4.16599 10.833C4.16599 10.597 4.24599 10.399 4.40599 10.239C4.56599 10.079 4.76399 9.99901 4.99999 10H5.83299V3.33301C5.83299 3.09701 5.91299 2.89901 6.07299 2.73901C6.23299 2.57901 6.43099 2.49901 6.66699 2.50001H11.25C12.528 2.50001 13.611 2.94401 14.5 3.83301C15.389 4.72301 15.833 5.80601 15.833 7.08301C15.833 7.97101 15.619 8.76501 15.19 9.46501C13.7078 9.71978 12.3673 10.501 11.415 11.665L11.25 11.667H7.49999V13.333H9.99999C10.147 13.333 10.28 13.364 10.398 13.427C10.2074 13.9331 10.0837 14.4619 10.03 15H7.49999V16.667C7.49999 16.903 7.41999 17.101 7.25999 17.261C7.18278 17.3393 7.09031 17.401 6.9883 17.4421C6.8863 17.4832 6.77693 17.5029 6.66699 17.5ZM7.49999 10H11.25C11.634 10.0062 12.0151 9.93359 12.37 9.78671C12.7248 9.63982 13.0457 9.42177 13.313 9.14601C13.5888 8.87875 13.8068 8.55779 13.9537 8.20297C14.1006 7.84815 14.1732 7.46698 14.167 7.08301C14.173 6.6992 14.1004 6.31823 13.9535 5.96359C13.8066 5.60895 13.5886 5.28816 13.313 5.02101C13.0457 4.74525 12.7248 4.52719 12.37 4.38031C12.0151 4.23343 11.634 4.16083 11.25 4.16701H7.49999V10ZM12.799 18.48C12.999 18.66 13.246 18.75 13.542 18.75H17.708C18.003 18.75 18.25 18.66 18.45 18.48C18.65 18.3 18.75 18.078 18.75 17.812V15C18.7523 14.8735 18.7268 14.7481 18.6751 14.6326C18.6234 14.5172 18.5469 14.4145 18.451 14.332C18.2469 14.1505 17.981 14.0539 17.708 14.062V13.125C17.709 12.61 17.505 12.169 17.097 11.801C16.6948 11.4359 16.1681 11.2387 15.625 11.25C15.053 11.25 14.563 11.433 14.155 11.8C13.745 12.168 13.542 12.61 13.542 13.125V14.063C13.2693 14.0541 13.0036 14.1504 12.8 14.332C12.6 14.512 12.5 14.734 12.5 15V17.813C12.4978 17.9393 12.5234 18.0646 12.5751 18.1799C12.6268 18.2951 12.7032 18.3976 12.799 18.48ZM16.667 13.125V14.063H14.583V13.125C14.5808 12.9984 14.6065 12.873 14.6583 12.7575C14.7102 12.642 14.7869 12.5394 14.883 12.457C15.083 12.277 15.33 12.187 15.625 12.187C15.919 12.187 16.167 12.277 16.367 12.457C16.567 12.637 16.667 12.859 16.667 13.125Z" fill="black"/>
</g>
</mask>
<g mask="url(#mask0_31_836)">
<rect width="20" height="20" fill="white"/>
</g>
<defs>
<clipPath id="clip0_31_836">
<rect width="20" height="20" fill="white"/>
</clipPath>
</defs>
</svg>
