<svg width="24" height="25" viewBox="0 0 24 25" fill="none" xmlns="http://www.w3.org/2000/svg">
<mask id="mask0_32_1956" style="mask-type:alpha" maskUnits="userSpaceOnUse" x="0" y="0" width="24" height="25">
<g clip-path="url(#clip0_32_1956)">
<path d="M9.49971 16.5603C7.68257 16.5603 6.14571 15.9303 4.88829 14.6721C3.63 13.4138 3.00086 11.8761 3 10.0606C3 8.24349 3.62914 6.70577 4.88829 5.44834C6.14571 4.19006 7.68429 3.56006 9.49971 3.56006C11.3169 3.56006 12.8537 4.1892 14.112 5.44834C15.3703 6.70663 15.9994 8.24434 16.0003 10.0598C16.0088 11.4372 15.5505 12.7768 14.7 13.8603L20.2997 19.4601C20.4831 19.6435 20.5749 19.8766 20.5749 20.1603C20.5749 20.4432 20.4831 20.6763 20.3006 20.8598C20.2087 20.9508 20.0992 21.0222 19.9788 21.0695C19.8584 21.1168 19.7296 21.1391 19.6003 21.1349C19.471 21.1392 19.3423 21.1171 19.2219 21.0699C19.1015 21.0227 18.992 20.9515 18.9 20.8606L13.3003 15.2601C12.217 16.1103 10.8768 16.5687 9.49971 16.5603ZM9.49971 14.5598C10.7503 14.5598 11.8123 14.1226 12.6883 13.2475C13.5626 12.3715 14.0006 11.3095 13.9997 10.0598C13.9997 8.81006 13.5626 7.7472 12.6874 6.87206C11.8114 5.99692 10.7494 5.55977 9.49971 5.56063C8.25 5.56063 7.18714 5.99777 6.312 6.87292C5.43686 7.74806 4.99971 8.81006 5.00057 10.0598C5.00057 11.3103 5.43771 12.3723 6.31286 13.2483C7.188 14.1226 8.25 14.5606 9.49971 14.5598Z" fill="black"/>
</g>
</mask>
<g mask="url(#mask0_32_1956)">
<rect y="0.560059" width="24" height="24" fill="white"/>
</g>
<defs>
<clipPath id="clip0_32_1956">
<rect width="24" height="24" fill="white" transform="translate(0 0.560059)"/>
</clipPath>
</defs>
</svg>
