<svg width="32" height="32" viewBox="0 0 32 32" fill="none" xmlns="http://www.w3.org/2000/svg">
<mask id="mask0_31_927" style="mask-type:alpha" maskUnits="userSpaceOnUse" x="0" y="0" width="32" height="32">
<g clip-path="url(#clip0_31_927)">
<path d="M16 2C8.3 2 2 8.3 2 16C2 23.7 8.3 30 16 30C23.7 30 30 23.7 30 16C30 8.3 23.7 2 16 2ZM22.86 10.54L20.48 22.02C20.34 22.86 19.78 23 19.22 22.58L15.58 19.78C14.74 20.62 13.9 21.32 13.76 21.6C13.48 21.74 13.34 22.02 13.06 22.02C12.64 22.02 12.64 21.74 12.5 21.46L11.24 17.26L7.46 16C6.62 15.72 6.62 15.16 7.6 14.74L21.88 9.28C22.44 9.14 23.14 9.42 22.86 10.54ZM19.5 11.8L11.52 16.84L12.78 21.04L13.06 18.24L19.92 12.08C20.34 11.66 20.06 11.66 19.5 11.8Z" fill="black"/>
</g>
</mask>
<g mask="url(#mask0_31_927)">
<rect width="32" height="32" fill="#A0A0A0"/>
</g>
<defs>
<clipPath id="clip0_31_927">
<rect width="32" height="32" fill="white"/>
</clipPath>
</defs>
</svg>
