<svg width="19" height="18" viewBox="0 0 19 18" fill="none" xmlns="http://www.w3.org/2000/svg">
<mask id="mask0_31_850" style="mask-type:alpha" maskUnits="userSpaceOnUse" x="0" y="0" width="19" height="18">
<g clip-path="url(#clip0_31_850)">
<path d="M9.06012 8.99998C8.61612 9.00641 8.17552 8.9218 7.76549 8.75136C7.35546 8.58092 6.98471 8.32826 6.67612 8.00898C6.35684 7.70038 6.10418 7.32963 5.93374 6.9196C5.76329 6.50958 5.67868 6.06897 5.68512 5.62498C5.68512 4.69698 6.01512 3.90198 6.67612 3.24098C6.98471 2.92169 7.35546 2.66904 7.76549 2.49859C8.17552 2.32815 8.61612 2.24354 9.06012 2.24998C9.98812 2.24998 10.7831 2.57998 11.4441 3.24098C12.1041 3.90198 12.4351 4.69698 12.4351 5.62498C12.4416 6.06897 12.3569 6.50958 12.1865 6.9196C12.0161 7.32963 11.7634 7.70038 11.4441 8.00898C11.1355 8.32826 10.7648 8.58092 10.3547 8.75136C9.94472 8.9218 9.50411 9.00641 9.06012 8.99998ZM3.99812 15.75C3.53312 15.75 3.13612 15.585 2.80512 15.254C2.64555 15.0999 2.51929 14.9146 2.43415 14.7098C2.34901 14.5049 2.30679 14.2848 2.31012 14.063V13.387C2.31012 12.909 2.43312 12.47 2.68012 12.069C2.92612 11.668 3.25312 11.362 3.66012 11.152C4.50616 10.7253 5.39786 10.3958 6.31812 10.17C7.21812 9.95198 8.13212 9.84298 9.06012 9.84398C9.98812 9.84398 10.9021 9.95298 11.8021 10.171C12.7021 10.389 13.5881 10.716 14.4601 11.151C14.8681 11.363 15.1951 11.669 15.4411 12.07C15.6881 12.47 15.8111 12.91 15.8101 13.387V14.062C15.8101 14.527 15.6451 14.924 15.3141 15.255C14.9841 15.585 14.5861 15.751 14.1231 15.75H3.99812Z" fill="black"/>
</g>
</mask>
<g mask="url(#mask0_31_850)">
<rect x="0.0601196" width="18" height="18" fill="white"/>
</g>
<defs>
<clipPath id="clip0_31_850">
<rect width="18" height="18" fill="white" transform="translate(0.0601196)"/>
</clipPath>
</defs>
</svg>
