<svg width="19" height="18" viewBox="0 0 19 18" fill="none" xmlns="http://www.w3.org/2000/svg">
<mask id="mask0_31_870" style="mask-type:alpha" maskUnits="userSpaceOnUse" x="0" y="0" width="19" height="18">
<g clip-path="url(#clip0_31_870)">
<path d="M7.75493 12.0002C6.39207 12.0002 5.23943 11.5277 4.29636 10.584C3.35264 9.64029 2.88079 8.487 2.88014 7.12543C2.88014 5.76257 3.352 4.60929 4.29636 3.66621C5.23943 2.7225 6.39336 2.25 7.75493 2.25C9.11778 2.25 10.2704 2.72186 11.2141 3.66621C12.1579 4.60993 12.6297 5.76321 12.6304 7.12479C12.6368 8.15783 12.293 9.16258 11.6551 9.97521L15.8549 14.175C15.9925 14.3126 16.0613 14.4874 16.0613 14.7002C16.0613 14.9124 15.9925 15.0872 15.8556 15.2248C15.7867 15.2931 15.7045 15.3466 15.6142 15.3821C15.5239 15.4176 15.4273 15.4343 15.3304 15.4311C15.2334 15.4343 15.1369 15.4178 15.0466 15.3824C14.9563 15.347 14.8741 15.2936 14.8051 15.2254L10.6054 11.025C9.7929 11.6627 8.78776 12.0065 7.75493 12.0002ZM7.75493 10.4998C8.69286 10.4998 9.48936 10.1719 10.1464 9.51557C10.8021 8.85857 11.1306 8.06207 11.1299 7.12479C11.1299 6.1875 10.8021 5.39036 10.1457 4.734C9.48871 4.07764 8.69221 3.74979 7.75493 3.75043C6.81764 3.75043 6.0205 4.07829 5.36414 4.73464C4.70778 5.391 4.37993 6.1875 4.38057 7.12479C4.38057 8.06271 4.70843 8.85921 5.36478 9.51621C6.02114 10.1719 6.81764 10.5004 7.75493 10.4998Z" fill="black"/>
</g>
</mask>
<g mask="url(#mask0_31_870)">
<rect x="0.630142" width="18" height="18" fill="#A0A0A0"/>
</g>
<defs>
<clipPath id="clip0_31_870">
<rect width="18" height="18" fill="white" transform="translate(0.630142)"/>
</clipPath>
</defs>
</svg>
