<svg width="25" height="25" viewBox="0 0 25 25" fill="none" xmlns="http://www.w3.org/2000/svg">
<mask id="mask0_375_1383" style="mask-type:alpha" maskUnits="userSpaceOnUse" x="0" y="0" width="25" height="25">
<g clip-path="url(#clip0_375_1383)">
<path d="M12.5 13.2827C11.1187 13.2827 9.7939 12.7339 8.81715 11.7572C7.8404 10.7804 7.29167 9.45566 7.29167 8.07432H9.375C9.375 8.90312 9.70424 9.69798 10.2903 10.284C10.8763 10.8701 11.6712 11.1993 12.5 11.1993C13.3288 11.1993 14.1237 10.8701 14.7097 10.284C15.2958 9.69798 15.625 8.90312 15.625 8.07432H17.7083C17.7083 9.45566 17.1596 10.7804 16.1828 11.7572C15.2061 12.7339 13.8813 13.2827 12.5 13.2827ZM12.5 2.86599C13.3288 2.86599 14.1237 3.19523 14.7097 3.78128C15.2958 4.36733 15.625 5.16219 15.625 5.99099H9.375C9.375 5.16219 9.70424 4.36733 10.2903 3.78128C10.8763 3.19523 11.6712 2.86599 12.5 2.86599ZM19.7917 5.99099H17.7083C17.7083 4.60965 17.1596 3.28489 16.1828 2.30814C15.2061 1.33139 13.8813 0.782654 12.5 0.782654C11.1187 0.782654 9.7939 1.33139 8.81715 2.30814C7.8404 3.28489 7.29167 4.60965 7.29167 5.99099H5.20833C4.05278 5.99099 3.125 6.91738 3.125 8.07432V20.5743C3.125 21.1269 3.34449 21.6568 3.73519 22.0475C4.1259 22.4382 4.6558 22.6577 5.20833 22.6577H19.7917C20.3442 22.6577 20.8741 22.4382 21.2648 22.0475C21.6555 21.6568 21.875 21.1269 21.875 20.5743V8.07432C21.875 7.52179 21.6555 6.99188 21.2648 6.60118C20.8741 6.21048 20.3442 5.99099 19.7917 5.99099Z" fill="black"/>
</g>
</mask>
<g mask="url(#mask0_375_1383)">
<rect width="25" height="25" fill="white"/>
</g>
<defs>
<clipPath id="clip0_375_1383">
<rect width="25" height="25" fill="white"/>
</clipPath>
</defs>
</svg>
