<svg xmlns="http://www.w3.org/2000/svg">
  <symbol id="rub" width="20" height="20" viewBox="0 0 20 20" fill="none">
    <path fill-rule="evenodd" clip-rule="evenodd" d="M6.66699 17.5C6.55684 17.5027 6.44731 17.4828 6.34515 17.4415C6.24299 17.4002 6.15037 17.3384 6.07299 17.26C5.99449 17.1829 5.93267 17.0905 5.89139 16.9884C5.8501 16.8864 5.83022 16.777 5.83299 16.667V15H4.99999C4.88984 15.0027 4.78031 14.9828 4.67815 14.9415C4.57599 14.9002 4.48337 14.8384 4.40599 14.76C4.32749 14.6829 4.26567 14.5905 4.22439 14.4884C4.1831 14.3864 4.16322 14.277 4.16599 14.167C4.16599 13.931 4.24599 13.733 4.40599 13.573C4.56599 13.413 4.76399 13.333 4.99999 13.333H5.83299V11.667H4.99999C4.88984 11.6697 4.78031 11.6498 4.67815 11.6085C4.57599 11.5672 4.48337 11.5054 4.40599 11.427C4.32736 11.3498 4.26548 11.2572 4.22419 11.155C4.1829 11.0528 4.16309 10.9432 4.16599 10.833C4.16599 10.597 4.24599 10.399 4.40599 10.239C4.56599 10.079 4.76399 9.99901 4.99999 10H5.83299V3.33301C5.83299 3.09701 5.91299 2.89901 6.07299 2.73901C6.23299 2.57901 6.43099 2.49901 6.66699 2.50001H11.25C12.528 2.50001 13.611 2.94401 14.5 3.83301C15.389 4.72301 15.833 5.80601 15.833 7.08301C15.833 7.97101 15.619 8.76501 15.19 9.46501C13.7078 9.71978 12.3673 10.501 11.415 11.665L11.25 11.667H7.49999V13.333H9.99999C10.147 13.333 10.28 13.364 10.398 13.427C10.2074 13.9331 10.0837 14.4619 10.03 15H7.49999V16.667C7.49999 16.903 7.41999 17.101 7.25999 17.261C7.18278 17.3393 7.09031 17.401 6.9883 17.4421C6.8863 17.4832 6.77693 17.5029 6.66699 17.5ZM7.49999 10H11.25C11.634 10.0062 12.0151 9.93359 12.37 9.78671C12.7248 9.63982 13.0457 9.42177 13.313 9.14601C13.5888 8.87875 13.8068 8.55779 13.9537 8.20297C14.1006 7.84815 14.1732 7.46698 14.167 7.08301C14.173 6.6992 14.1004 6.31823 13.9535 5.96359C13.8066 5.60895 13.5886 5.28816 13.313 5.02101C13.0457 4.74525 12.7248 4.52719 12.37 4.38031C12.0151 4.23343 11.634 4.16083 11.25 4.16701H7.49999V10ZM12.799 18.48C12.999 18.66 13.246 18.75 13.542 18.75H17.708C18.003 18.75 18.25 18.66 18.45 18.48C18.65 18.3 18.75 18.078 18.75 17.812V15C18.7523 14.8735 18.7268 14.7481 18.6751 14.6326C18.6234 14.5172 18.5469 14.4145 18.451 14.332C18.2469 14.1505 17.981 14.0539 17.708 14.062V13.125C17.709 12.61 17.505 12.169 17.097 11.801C16.6948 11.4359 16.1681 11.2387 15.625 11.25C15.053 11.25 14.563 11.433 14.155 11.8C13.745 12.168 13.542 12.61 13.542 13.125V14.063C13.2693 14.0541 13.0036 14.1504 12.8 14.332C12.6 14.512 12.5 14.734 12.5 15V17.813C12.4978 17.9393 12.5234 18.0646 12.5751 18.1799C12.6268 18.2951 12.7032 18.3976 12.799 18.48ZM16.667 13.125V14.063H14.583V13.125C14.5808 12.9984 14.6065 12.873 14.6583 12.7575C14.7102 12.642 14.7869 12.5394 14.883 12.457C15.083 12.277 15.33 12.187 15.625 12.187C15.919 12.187 16.167 12.277 16.367 12.457C16.567 12.637 16.667 12.859 16.667 13.125Z" fill="currentColor"/>
  </symbol>
  <symbol id="search" width="19" height="18" viewBox="0 0 19 18" fill="none">
    <path d="M7.75493 12.0002C6.39207 12.0002 5.23943 11.5277 4.29636 10.584C3.35264 9.64029 2.88079 8.487 2.88014 7.12543C2.88014 5.76257 3.352 4.60929 4.29636 3.66621C5.23943 2.7225 6.39336 2.25 7.75493 2.25C9.11778 2.25 10.2704 2.72186 11.2141 3.66621C12.1579 4.60993 12.6297 5.76321 12.6304 7.12479C12.6368 8.15783 12.293 9.16258 11.6551 9.97521L15.8549 14.175C15.9925 14.3126 16.0613 14.4874 16.0613 14.7002C16.0613 14.9124 15.9925 15.0872 15.8556 15.2248C15.7867 15.2931 15.7045 15.3466 15.6142 15.3821C15.5239 15.4176 15.4273 15.4343 15.3304 15.4311C15.2334 15.4343 15.1369 15.4178 15.0466 15.3824C14.9563 15.347 14.8741 15.2936 14.8051 15.2254L10.6054 11.025C9.7929 11.6627 8.78776 12.0065 7.75493 12.0002ZM7.75493 10.4998C8.69286 10.4998 9.48936 10.1719 10.1464 9.51557C10.8021 8.85857 11.1306 8.06207 11.1299 7.12479C11.1299 6.1875 10.8021 5.39036 10.1457 4.734C9.48871 4.07764 8.69221 3.74979 7.75493 3.75043C6.81764 3.75043 6.0205 4.07829 5.36414 4.73464C4.70778 5.391 4.37993 6.1875 4.38057 7.12479C4.38057 8.06271 4.70843 8.85921 5.36478 9.51621C6.02114 10.1719 6.81764 10.5004 7.75493 10.4998Z" fill="currentColor"/>
  </symbol>
  <symbol id="search1" width="24" height="25" viewBox="0 0 24 25" fill="none">
    <path d="M9.49971 16.5603C7.68257 16.5603 6.14571 15.9303 4.88829 14.6721C3.63 13.4138 3.00086 11.8761 3 10.0606C3 8.24349 3.62914 6.70577 4.88829 5.44834C6.14571 4.19006 7.68429 3.56006 9.49971 3.56006C11.3169 3.56006 12.8537 4.1892 14.112 5.44834C15.3703 6.70663 15.9994 8.24434 16.0003 10.0598C16.0088 11.4372 15.5505 12.7768 14.7 13.8603L20.2997 19.4601C20.4831 19.6435 20.5749 19.8766 20.5749 20.1603C20.5749 20.4432 20.4831 20.6763 20.3006 20.8598C20.2087 20.9508 20.0992 21.0222 19.9788 21.0695C19.8584 21.1168 19.7296 21.1391 19.6003 21.1349C19.471 21.1392 19.3423 21.1171 19.2219 21.0699C19.1015 21.0227 18.992 20.9515 18.9 20.8606L13.3003 15.2601C12.217 16.1103 10.8768 16.5687 9.49971 16.5603ZM9.49971 14.5598C10.7503 14.5598 11.8123 14.1226 12.6883 13.2475C13.5626 12.3715 14.0006 11.3095 13.9997 10.0598C13.9997 8.81006 13.5626 7.7472 12.6874 6.87206C11.8114 5.99692 10.7494 5.55977 9.49971 5.56063C8.25 5.56063 7.18714 5.99777 6.312 6.87292C5.43686 7.74806 4.99971 8.81006 5.00057 10.0598C5.00057 11.3103 5.43771 12.3723 6.31286 13.2483C7.188 14.1226 8.25 14.5606 9.49971 14.5598Z" fill="currentColor"/>
  </symbol>
  <symbol id="LogIn" width="19" height="18" viewBox="0 0 19 18" fill="none">
    <path d="M9.06012 8.99998C8.61612 9.00641 8.17552 8.9218 7.76549 8.75136C7.35546 8.58092 6.98471 8.32826 6.67612 8.00898C6.35684 7.70038 6.10418 7.32963 5.93374 6.9196C5.76329 6.50958 5.67868 6.06897 5.68512 5.62498C5.68512 4.69698 6.01512 3.90198 6.67612 3.24098C6.98471 2.92169 7.35546 2.66904 7.76549 2.49859C8.17552 2.32815 8.61612 2.24354 9.06012 2.24998C9.98812 2.24998 10.7831 2.57998 11.4441 3.24098C12.1041 3.90198 12.4351 4.69698 12.4351 5.62498C12.4416 6.06897 12.3569 6.50958 12.1865 6.9196C12.0161 7.32963 11.7634 7.70038 11.4441 8.00898C11.1355 8.32826 10.7648 8.58092 10.3547 8.75136C9.94472 8.9218 9.50411 9.00641 9.06012 8.99998ZM3.99812 15.75C3.53312 15.75 3.13612 15.585 2.80512 15.254C2.64555 15.0999 2.51929 14.9146 2.43415 14.7098C2.34901 14.5049 2.30679 14.2848 2.31012 14.063V13.387C2.31012 12.909 2.43312 12.47 2.68012 12.069C2.92612 11.668 3.25312 11.362 3.66012 11.152C4.50616 10.7253 5.39786 10.3958 6.31812 10.17C7.21812 9.95198 8.13212 9.84298 9.06012 9.84398C9.98812 9.84398 10.9021 9.95298 11.8021 10.171C12.7021 10.389 13.5881 10.716 14.4601 11.151C14.8681 11.363 15.1951 11.669 15.4411 12.07C15.6881 12.47 15.8111 12.91 15.8101 13.387V14.062C15.8101 14.527 15.6451 14.924 15.3141 15.255C14.9841 15.585 14.5861 15.751 14.1231 15.75H3.99812Z" fill="currentColor"/>
  </symbol>
  <symbol id="EAC" width="20" height="20" viewBox="0 0 20 20" fill="none">
    <path fill-rule="evenodd" clip-rule="evenodd" d="M5.48625 2.5H1.875V16.875H5.48625V15.02H3.68062V10.3831H5.48625V8.99188H3.68062V4.355H5.48625V2.5ZM9.0975 16.875V10.3831H10.9031V16.875H12.7087V2.5H7.29187V16.875H9.0975ZM10.9031 8.99188H9.0975V3.89125H10.9031V8.99188ZM14.5138 2.5H18.125V4.355H16.3194V15.02H18.125V16.875H14.5138V2.5Z" fill="currentColor"/>
  </symbol>
  <symbol id="basket" width="19" height="18" viewBox="0 0 19 18" fill="none">
    <path d="M9.89014 9.56299C8.89558 9.56299 7.94175 9.1679 7.23849 8.46464C6.53522 7.76138 6.14014 6.80755 6.14014 5.81299H7.64014C7.64014 6.40973 7.87719 6.98202 8.29915 7.40398C8.7211 7.82594 9.2934 8.06299 9.89014 8.06299C10.4869 8.06299 11.0592 7.82594 11.4811 7.40398C11.9031 6.98202 12.1401 6.40973 12.1401 5.81299H13.6401C13.6401 6.80755 13.245 7.76138 12.5418 8.46464C11.8385 9.1679 10.8847 9.56299 9.89014 9.56299ZM9.89014 2.06299C10.4869 2.06299 11.0592 2.30004 11.4811 2.722C11.9031 3.14395 12.1401 3.71625 12.1401 4.31299H7.64014C7.64014 3.71625 7.87719 3.14395 8.29915 2.722C8.7211 2.30004 9.2934 2.06299 9.89014 2.06299ZM15.1401 4.31299H13.6401C13.6401 3.31843 13.245 2.3646 12.5418 1.66134C11.8385 0.958076 10.8847 0.562988 9.89014 0.562988C8.89558 0.562988 7.94175 0.958076 7.23849 1.66134C6.53522 2.3646 6.14014 3.31843 6.14014 4.31299H4.64014C3.80814 4.31299 3.14014 4.97999 3.14014 5.81299V14.813C3.14014 15.2108 3.29817 15.5923 3.57948 15.8736C3.86078 16.155 4.24231 16.313 4.64014 16.313H15.1401C15.538 16.313 15.9195 16.155 16.2008 15.8736C16.4821 15.5923 16.6401 15.2108 16.6401 14.813V5.81299C16.6401 5.41516 16.4821 5.03363 16.2008 4.75233C15.9195 4.47102 15.538 4.31299 15.1401 4.31299Z" fill="currentColor"/>
  </symbol>
  <symbol id="tg" width="32" height="32" viewBox="0 0 32 32" fill="none">
    <path d="M16 2C8.3 2 2 8.3 2 16C2 23.7 8.3 30 16 30C23.7 30 30 23.7 30 16C30 8.3 23.7 2 16 2ZM22.86 10.54L20.48 22.02C20.34 22.86 19.78 23 19.22 22.58L15.58 19.78C14.74 20.62 13.9 21.32 13.76 21.6C13.48 21.74 13.34 22.02 13.06 22.02C12.64 22.02 12.64 21.74 12.5 21.46L11.24 17.26L7.46 16C6.62 15.72 6.62 15.16 7.6 14.74L21.88 9.28C22.44 9.14 23.14 9.42 22.86 10.54ZM19.5 11.8L11.52 16.84L12.78 21.04L13.06 18.24L19.92 12.08C20.34 11.66 20.06 11.66 19.5 11.8Z" fill="currentColor"/>
  </symbol>
  <symbol id="cat" width="24" height="25" viewBox="0 0 24 25" fill="none">
    <path d="M2.99998 13.4997V5.50029C2.99998 4.95013 3.19567 4.47936 3.58798 4.08706C3.77067 3.89774 3.99028 3.74796 4.23322 3.64697C4.47615 3.54599 4.73723 3.49596 5.00029 3.49998H11.0003V13.4997H2.99998ZM12.9997 3.49998H18.9997C19.5498 3.49998 20.0206 3.69567 20.4129 4.08798C20.8052 4.48029 21.0009 4.95106 21 5.50029V9.49998H12.9997V3.49998ZM12.9997 21.5V11.5003H21V19.4997C21 20.0498 20.8043 20.5206 20.412 20.9129C20.2293 21.1022 20.0097 21.252 19.7667 21.353C19.5238 21.454 19.2627 21.504 18.9997 21.5H12.9997ZM2.99998 15.5H11.0003V21.5H5.00029C4.73705 21.5037 4.47583 21.4535 4.23277 21.3524C3.9897 21.2512 3.76994 21.1014 3.58706 20.912C3.39774 20.7293 3.24796 20.5097 3.14697 20.2667C3.04599 20.0238 2.99596 19.7627 2.99998 19.4997V15.5Z" fill="currentColor"/>
  </symbol>
  <symbol id="info" width="24" height="25" viewBox="0 0 24 25" fill="none">
    <path d="M18.9997 18.2V20C18.9997 20.1329 19.0504 20.2492 19.1501 20.3507C19.195 20.3985 19.2492 20.4366 19.3094 20.4626C19.3696 20.4887 19.4344 20.5021 19.5 20.5021C19.5655 20.5021 19.6304 20.4887 19.6906 20.4626C19.7507 20.4366 19.8049 20.3985 19.8498 20.3507C19.8976 20.3057 19.9355 20.2513 19.9614 20.191C19.9873 20.1306 20.0005 20.0656 20.0003 20V17C20.0005 16.9343 19.9873 16.8693 19.9614 16.809C19.9355 16.7487 19.8976 16.6943 19.8498 16.6492C19.8048 16.6018 19.7505 16.564 19.6904 16.5383C19.6302 16.5126 19.5654 16.4994 19.5 16.4997H16.5C16.4343 16.4994 16.3693 16.5127 16.309 16.5385C16.2487 16.5644 16.1943 16.6024 16.1492 16.6501C16.1014 16.695 16.0633 16.7492 16.0373 16.8094C16.0113 16.8696 15.9979 16.9344 15.9979 17C15.9979 17.0655 16.0113 17.1304 16.0373 17.1906C16.0633 17.2507 16.1014 17.3049 16.1492 17.3498C16.1943 17.3976 16.2487 17.4355 16.309 17.4614C16.3693 17.4873 16.4343 17.5005 16.5 17.5003H18.3L15.8501 19.9501C15.8024 19.995 15.7643 20.0492 15.7382 20.1094C15.7122 20.1696 15.6988 20.2344 15.6988 20.3C15.6988 20.3655 15.7122 20.4304 15.7382 20.4906C15.7643 20.5507 15.8024 20.6049 15.8501 20.6498C15.895 20.6976 15.9492 20.7357 16.0094 20.7617C16.0696 20.7878 16.1344 20.8012 16.2 20.8012C16.2655 20.8012 16.3304 20.7878 16.3906 20.7617C16.4507 20.7357 16.5049 20.6976 16.5498 20.6498L18.9997 18.2ZM18 23.5003C16.6163 23.5003 15.4375 23.012 14.4618 22.0372C13.4871 21.0615 12.9997 19.8827 12.9997 18.5C12.9997 17.1163 13.488 15.9375 14.4627 14.9618C15.4384 13.9871 16.6172 13.4997 18 13.4997C19.3837 13.4997 20.5624 13.988 21.5381 14.9627C22.5129 15.9384 23.0003 17.1172 23.0003 18.5C23.0003 19.8837 22.512 21.0624 21.5372 22.0381C20.5615 23.0129 19.3827 23.5003 18 23.5003ZM8.00029 9.49998H15.9997C16.2831 9.49998 16.5212 9.40398 16.7132 9.21198C16.9052 9.01998 17.0003 8.78275 16.9994 8.50029C17.0027 8.36806 16.979 8.23654 16.9296 8.11382C16.8803 7.99111 16.8063 7.8798 16.7123 7.78675C16.6195 7.69276 16.5083 7.61885 16.3857 7.56963C16.2631 7.5204 16.1317 7.4969 15.9997 7.5006H8.00029C7.86806 7.49723 7.73654 7.52096 7.61382 7.57033C7.49111 7.6197 7.3798 7.69366 7.28675 7.78767C7.19276 7.8805 7.11885 7.99166 7.06963 8.11425C7.0204 8.23684 6.9969 8.36824 7.0006 8.50029C7.0006 8.78367 7.09567 9.0209 7.28767 9.2129C7.47967 9.4049 7.7169 9.5009 8.00029 9.49998ZM11.6741 21.5H5.00029C4.73705 21.5037 4.47583 21.4535 4.23277 21.3524C3.9897 21.2512 3.76994 21.1014 3.58706 20.912C3.39774 20.7293 3.24796 20.5097 3.14697 20.2667C3.04599 20.0238 2.99596 19.7627 2.99998 19.4997V5.50029C2.99998 4.95013 3.19567 4.47936 3.58798 4.08706C3.77067 3.89774 3.99028 3.74796 4.23322 3.64697C4.47615 3.54599 4.73723 3.49596 5.00029 3.49998H18.9997C19.5498 3.49998 20.0206 3.69567 20.4129 4.08798C20.8052 4.48029 21.0009 4.95106 21 5.50029V12.2C20.5328 11.9723 20.0422 11.7962 19.5369 11.6747C19.0332 11.5566 18.5174 11.4977 18 11.4994C17.8163 11.4994 17.6455 11.504 17.4867 11.5123C17.3232 11.5209 17.1606 11.5419 17.0003 11.5751C16.8356 11.5399 16.6682 11.5192 16.5 11.5132C16.3163 11.5049 16.1492 11.5003 15.9997 11.5003H8.00029C7.86799 11.497 7.73643 11.5209 7.61371 11.5704C7.491 11.62 7.37972 11.6941 7.28675 11.7883C7.19287 11.881 7.11903 11.992 7.06981 12.1144C7.02059 12.2369 6.99703 12.3681 7.0006 12.5C7.0006 12.7834 7.09567 13.0206 7.28767 13.2126C7.47967 13.4046 7.7169 13.5006 8.00029 13.4997H13.1252C12.5206 14.0696 12.0287 14.7481 11.6751 15.5H8.00029C7.86799 15.4967 7.73643 15.5206 7.61371 15.5701C7.491 15.6197 7.37972 15.6938 7.28675 15.788C7.19287 15.8807 7.11903 15.9917 7.06981 16.1141C7.02059 16.2365 6.99703 16.3678 7.0006 16.4997C7.0006 16.7831 7.09567 17.0212 7.28767 17.2132C7.47967 17.4052 7.7169 17.5003 8.00029 17.4994H11.0741C11.0422 17.6608 11.0215 17.8243 11.0123 17.9886C11.0031 18.1464 10.9994 18.3172 11.0003 18.5C11.0003 19.0501 11.0501 19.5624 11.1498 20.0378C11.2495 20.5132 11.424 21.0006 11.6741 21.5Z" fill="currentColor"/>
  </symbol>
  <symbol id="filter" width="14" height="10" viewBox="0 0 14 10" fill="none" xmlns="http://www.w3.org/2000/svg">
    <path d="M0 2.42102H14M0 7.54944H14" stroke="#C1C1C1" />
    <circle cx="3.00421" cy="2.42102" r="2.00421" fill="#C1C1C1" />
    <circle cx="11.303" cy="7.57892" r="2.00421" fill="#C1C1C1" />
  </symbol>
  <symbol id="copy" width="14" height="14" viewBox="0 0 14 14" fill="none" xmlns="http://www.w3.org/2000/svg">
    <rect x="0.5" y="3.5" width="10" height="10" rx="1.5" stroke="currentColor" />
    <path d="M3 1H11C12.1046 1 13 1.89543 13 3V11" stroke="currentColor" />
  </symbol>
  <symbol id="basketIMG" width="25" height="25" viewBox="0 0 25 25" fill="none" xmlns="http://www.w3.org/2000/svg">
    <path d="M12.5 13.2827C11.1187 13.2827 9.7939 12.7339 8.81715 11.7572C7.8404 10.7804 7.29167 9.45566 7.29167 8.07432H9.375C9.375 8.90312 9.70424 9.69798 10.2903 10.284C10.8763 10.8701 11.6712 11.1993 12.5 11.1993C13.3288 11.1993 14.1237 10.8701 14.7097 10.284C15.2958 9.69798 15.625 8.90312 15.625 8.07432H17.7083C17.7083 9.45566 17.1596 10.7804 16.1828 11.7572C15.2061 12.7339 13.8813 13.2827 12.5 13.2827ZM12.5 2.86599C13.3288 2.86599 14.1237 3.19523 14.7097 3.78128C15.2958 4.36733 15.625 5.16219 15.625 5.99099H9.375C9.375 5.16219 9.70424 4.36733 10.2903 3.78128C10.8763 3.19523 11.6712 2.86599 12.5 2.86599ZM19.7917 5.99099H17.7083C17.7083 4.60965 17.1596 3.28489 16.1828 2.30814C15.2061 1.33139 13.8813 0.782654 12.5 0.782654C11.1187 0.782654 9.7939 1.33139 8.81715 2.30814C7.8404 3.28489 7.29167 4.60965 7.29167 5.99099H5.20833C4.05278 5.99099 3.125 6.91738 3.125 8.07432V20.5743C3.125 21.1269 3.34449 21.6568 3.73519 22.0475C4.1259 22.4382 4.6558 22.6577 5.20833 22.6577H19.7917C20.3442 22.6577 20.8741 22.4382 21.2648 22.0475C21.6555 21.6568 21.875 21.1269 21.875 20.5743V8.07432C21.875 7.52179 21.6555 6.99188 21.2648 6.60118C20.8741 6.21048 20.3442 5.99099 19.7917 5.99099Z" fill="currentColor"/>
  </symbol>
</svg>